<svg width="32" height="32" viewBox="0 0 32 32" fill="none" xmlns="http://www.w3.org/2000/svg">
  <!-- 背景：现代感六边形 -->
  <path d="M16 1L29.5 8.5V23.5L16 31L2.5 23.5V8.5L16 1Z" fill="url(#bg-gradient)"/>
  
  <!-- 发光效果 -->
  <path d="M16 1L29.5 8.5V23.5L16 31L2.5 23.5V8.5L16 1Z" fill="url(#glow)" opacity="0.6"/>
  
  <!-- 内部钻石切面效果 -->
  <path d="M16 5L24 10V22L16 27L8 22V10L16 5Z" fill="url(#inner-gradient)" opacity="0.3"/>
  
  <!-- 中心：抽象密钥/加密符号 -->
  <g>
    <!-- 外环 -->
    <circle cx="16" cy="14" r="5" stroke="white" stroke-width="1.5" fill="none" opacity="0.9"/>
    <!-- 钥匙柄 -->
    <rect x="15" y="18" width="2" height="8" rx="1" fill="white" opacity="0.9"/>
    <!-- 钥匙齿 -->
    <rect x="17" y="21" width="3" height="1.5" rx="0.5" fill="white" opacity="0.9"/>
    <rect x="17" y="24" width="2" height="1.5" rx="0.5" fill="white" opacity="0.9"/>
    <!-- 中心点光芒 -->
    <circle cx="16" cy="14" r="2" fill="url(#center-glow)"/>
  </g>
  
  <!-- 装饰性数字/代码元素 -->
  <text x="6" y="12" fill="white" opacity="0.3" font-size="4" font-family="monospace">01</text>
  <text x="23" y="25" fill="white" opacity="0.3" font-size="4" font-family="monospace">10</text>
  
  <defs>
    <!-- 主背景渐变：深邃的紫蓝色 -->
    <linearGradient id="bg-gradient" x1="2" y1="2" x2="30" y2="30" gradientUnits="userSpaceOnUse">
      <stop stop-color="#1e1b4b"/>
      <stop offset="0.5" stop-color="#312e81"/>
      <stop offset="1" stop-color="#4c1d95"/>
    </linearGradient>
    
    <!-- 发光渐变 -->
    <radialGradient id="glow" cx="16" cy="16" r="16" gradientUnits="userSpaceOnUse">
      <stop stop-color="#818cf8" stop-opacity="0.5"/>
      <stop offset="1" stop-color="#818cf8" stop-opacity="0"/>
    </radialGradient>
    
    <!-- 内部面渐变 -->
    <linearGradient id="inner-gradient" x1="8" y1="5" x2="24" y2="27" gradientUnits="userSpaceOnUse">
      <stop stop-color="#c4b5fd"/>
      <stop offset="1" stop-color="#8b5cf6"/>
    </linearGradient>
    
    <!-- 中心光点 -->
    <radialGradient id="center-glow" cx="16" cy="14" r="2" gradientUnits="userSpaceOnUse">
      <stop stop-color="#ffffff"/>
      <stop offset="0.5" stop-color="#a5b4fc"/>
      <stop offset="1" stop-color="#6366f1"/>
    </radialGradient>
  </defs>
</svg>
